<svg width="35" height="35" fill="none" xmlns="http://www.w3.org/2000/svg">
    <path
        d="M25.6718 16.4828L23.8785 14.1677C23.7226 13.9701 23.4367 13.9418 23.2288 14.1112C23.0468 14.2806 23.0209 14.5912 23.1768 14.817L24.8661 16.991H10.4678C10.2079 16.991 10 17.2168 10 17.4991C10 17.7815 10.2079 18.0073 10.4678 18.0073H24.8661L23.1768 20.1813C23.0209 20.3789 23.0468 20.6894 23.2288 20.8871C23.3067 20.9718 23.4107 21 23.5147 21C23.6446 21 23.7746 20.9435 23.8525 20.8306L25.6458 18.5155C26.1136 17.8944 26.1136 17.0474 25.6718 16.4828Z"
        fill="#54ADFF" />
    <circle cx="17.5" cy="17.5" r="17" stroke="#CCE4FB" />
</svg>